<svg width="68" height="68" viewBox="0 0 68 68" fill="none" xmlns="http://www.w3.org/2000/svg">
<path d="M67.3657 35.4743C65.3243 32.7525 63.2829 32.7525 58.2928 35.3609L53.3027 38.4362V11.8849C53.3027 10.0704 51.8284 8.48259 49.9004 8.48259H39.6935V7.34854C39.6935 6.66807 39.2399 6.21448 38.5594 6.21448H27.2184C26.538 6.21448 26.0844 6.66807 26.0844 7.34854V8.48259H15.8775C14.063 8.48259 12.4752 9.95688 12.4752 11.8849V32.299C10.7018 33.0128 9.09479 33.9361 7.9388 34.6746V32.2989H0V61.7856H7.93867V58.3833H22.682C24.9502 58.3833 27.3318 58.1564 29.5999 58.043L44.3432 55.7748C44.9103 55.7748 45.4773 55.6614 45.931 55.5479C47.2919 55.321 48.5395 54.6406 49.6735 53.6199L66.7984 40.0107C68.1595 38.8766 68.3864 36.8352 67.3657 35.4743ZM28.3525 8.48259H37.4254V9.61665V17.442L33.5695 14.3799C33.2292 14.0396 32.6621 14.0396 32.2085 14.3799L28.3526 17.442V9.61678V8.48259H28.3525ZM14.7433 11.8849C14.7433 11.3178 15.1969 10.7508 15.8773 10.7508H26.0843V17.6688C26.0843 18.4626 26.5379 19.2566 27.3318 19.5968C27.5496 19.7058 27.8722 19.8136 28.1987 19.8221C28.6921 19.8604 29.1689 19.7293 29.6001 19.3701L32.889 16.7616L35.9511 19.3701C36.3944 19.6657 36.8859 19.8156 37.3941 19.791C37.7381 19.8096 38.092 19.7487 38.4461 19.597C39.2399 19.2567 39.6936 18.4629 39.6936 17.669V10.7508H49.6737C50.2408 10.7508 50.8077 11.2044 50.8077 11.8849V39.8973L48.4261 41.3716C47.0833 42.1549 44.0846 42.386 41.2814 42.392C41.8482 41.3713 41.6214 40.1239 40.6008 38.6497C38.7863 36.0413 35.7242 34.4536 32.4353 34.4536H32.3219H28.0123C25.6307 34.4536 23.3624 33.7732 21.5479 32.4122C20.5069 31.6316 19.3165 31.2665 18.0689 31.1875C17.8715 31.1726 17.6703 31.1647 17.4651 31.1647C16.6713 31.1647 15.764 31.278 14.7433 31.5049V11.8849ZM5.67055 59.5172H2.26825V34.567H5.67055V36.2681V58.3831V59.5172ZM65.4376 38.4229L48.1994 51.8054L48.086 51.9187C47.4056 52.7126 46.4982 53.1663 45.4775 53.2797C45.0239 53.393 44.6837 53.393 44.23 53.393L29.2598 55.6613C27.1051 56.0015 24.8368 56.1149 22.6821 56.1149H7.93867V37.4022C9.25334 36.4709 11.4145 35.1431 13.6556 34.3C13.7913 34.298 13.9271 34.2721 14.0628 34.2267C16.7847 33.3194 18.826 33.3194 20.187 34.3401C22.3417 35.9279 25.0636 36.8351 28.0123 36.8351H32.4353C35.0438 36.8351 37.4254 37.9692 38.7863 40.124C39.3416 40.7903 39.4612 41.4555 39.3595 41.6959C39.3574 41.7011 39.3556 41.707 39.3532 41.7118C39.2483 41.8867 39.0456 42.0292 38.773 42.146C38.767 42.1485 38.7616 42.1511 38.7556 42.1536C38.7218 42.1678 38.6856 42.181 38.6497 42.1944C38.6179 42.2061 38.5869 42.218 38.5532 42.2293C38.5424 42.2331 38.531 42.2364 38.52 42.24C38.3383 42.2992 38.1299 42.3535 37.8936 42.4016C37.8923 42.4019 37.8909 42.4021 37.8897 42.4024C37.8138 42.4178 37.7348 42.4324 37.6534 42.4465C37.6388 42.449 37.6241 42.4516 37.6093 42.4539C37.5378 42.466 37.4642 42.4776 37.3885 42.4888C37.3711 42.4913 37.3537 42.4939 37.3362 42.4965C36.9607 42.5498 36.5368 42.5914 36.0643 42.6191C35.8296 42.6191 35.5977 42.6191 35.3839 42.6191C35.2196 42.6191 35.0657 42.6191 34.9303 42.6191H24.3831C20.8674 42.6191 18.7125 44.3203 18.7125 47.1555C18.7125 47.836 19.1661 48.2896 19.8466 48.2896C20.5271 48.2896 20.9807 47.836 20.9807 47.1555C20.9807 46.5884 20.9807 44.8873 24.383 44.8873H34.8168C35.157 44.8873 35.6106 44.8873 36.291 44.8873C36.4044 44.8873 36.6313 44.8873 36.8581 44.8873C42.1885 45.0006 47.1784 44.8873 49.7869 43.5263L59.5404 37.5157C64.3036 35.1341 64.7572 35.7012 65.6645 37.0621C65.8914 37.4022 65.8914 38.0827 65.4376 38.4229Z" fill="#253769"/>
</svg>
