<svg width="65" height="65" viewBox="0 0 65 65" fill="none" xmlns="http://www.w3.org/2000/svg">
<g clip-path="url(#clip0_22_49)">
<path d="M22.75 28.1666H20.5834V30.3333H22.75V28.1666Z" fill="#253769"/>
<path d="M22.75 32.5H20.5834V34.6667H22.75V32.5Z" fill="#253769"/>
<path d="M20.5833 14.0833H22.75C25.7833 14.0833 28.1666 11.7 28.1666 8.66667V5.41667C28.1666 2.38333 25.7833 0 22.75 0H20.5833C17.55 0 15.1666 2.38333 15.1666 5.41667V8.66667C15.1666 11.7 17.55 14.0833 20.5833 14.0833ZM17.3333 5.41667C17.3333 3.575 18.7416 2.16667 20.5833 2.16667H22.75C24.5916 2.16667 26 3.575 26 5.41667V8.66667C26 10.5083 24.5916 11.9167 22.75 11.9167H20.5833C18.7416 11.9167 17.3333 10.5083 17.3333 8.66667V5.41667Z" fill="#253769"/>
<path d="M63.9167 36.8333H34.6667V22.75C34.6667 18.525 31.3083 15.1666 27.0833 15.1666H16.25C12.025 15.1666 8.66667 18.525 8.66667 22.75V36.8333H1.08333C0.433333 36.8333 0 37.2666 0 37.9166V44.4166C0 45.0666 0.433333 45.5 1.08333 45.5H4.33333V65H6.5V45.5H54.1667V43.3333H5.41667H2.16667V39H62.8333V43.3333H59.5833C58.9333 43.3333 58.5 43.7666 58.5 44.4166V65H60.6667V45.5H63.9167C64.5667 45.5 65 45.0666 65 44.4166V37.9166C65 37.2666 64.5667 36.8333 63.9167 36.8333ZM23.5083 17.3333L21.775 21.8833L20.0417 17.3333H23.5083ZM10.8333 22.75C10.8333 19.7166 13.2167 17.3333 16.25 17.3333H17.6583L20.6917 25.35C20.8 25.675 21.2333 26 21.6667 26C22.1 26 22.5333 25.675 22.8583 25.35L25.8917 17.3333H27.0833C30.1167 17.3333 32.5 19.7166 32.5 22.75V36.8333H29.25V26H27.0833V36.8333H16.25V26H14.0833V36.8333H10.8333V22.75Z" fill="#253769"/>
<path d="M63.9167 3.25H37.9167C37.2667 3.25 36.8334 3.68333 36.8334 4.33333V19.5C36.8334 20.15 37.2667 20.5833 37.9167 20.5833H43.3334V24.9167C43.3334 25.35 43.55 25.7833 43.9834 25.8917C44.0917 26 44.3084 26 44.4167 26C44.7417 26 44.9584 25.8917 45.175 25.675L50.2667 20.5833H63.9167C64.5667 20.5833 65 20.15 65 19.5V4.33333C65 3.68333 64.5667 3.25 63.9167 3.25ZM62.8334 18.4167H49.8334C49.5084 18.4167 49.2917 18.525 49.075 18.7417L45.5 22.3167V19.5C45.5 18.85 45.0667 18.4167 44.4167 18.4167H39V5.41667H62.8334V18.4167Z" fill="#253769"/>
<path d="M48.75 8.66663H42.25V10.8333H48.75V8.66663Z" fill="#253769"/>
<path d="M57.4166 8.66663H50.9166V10.8333H57.4166V8.66663Z" fill="#253769"/>
<path d="M59.5833 13H42.25V15.1667H59.5833V13Z" fill="#253769"/>
<path d="M37.9167 50.9166H27.0833C26.4333 50.9166 26 51.35 26 52V58.5C26 59.15 26.4333 59.5833 27.0833 59.5833H37.9167C38.5667 59.5833 39 59.15 39 58.5V52C39 51.35 38.5667 50.9166 37.9167 50.9166ZM36.8333 57.4166H28.1667V53.0833H36.8333V57.4166Z" fill="#253769"/>
<path d="M45.5 52H43.3334V54.1667H45.5V52Z" fill="#253769"/>
<path d="M49.8333 52H47.6666V54.1667H49.8333V52Z" fill="#253769"/>
<path d="M54.1667 52H52V54.1667H54.1667V52Z" fill="#253769"/>
<path d="M45.5 56.3333H43.3334V58.5H45.5V56.3333Z" fill="#253769"/>
<path d="M49.8333 56.3333H47.6666V58.5H49.8333V56.3333Z" fill="#253769"/>
<path d="M54.1667 56.3333H52V58.5H54.1667V56.3333Z" fill="#253769"/>
<path d="M13 52H10.8334V54.1667H13V52Z" fill="#253769"/>
<path d="M17.3333 52H15.1666V54.1667H17.3333V52Z" fill="#253769"/>
<path d="M21.6667 52H19.5V54.1667H21.6667V52Z" fill="#253769"/>
<path d="M13 56.3333H10.8334V58.5H13V56.3333Z" fill="#253769"/>
<path d="M17.3333 56.3333H15.1666V58.5H17.3333V56.3333Z" fill="#253769"/>
<path d="M21.6667 56.3333H19.5V58.5H21.6667V56.3333Z" fill="#253769"/>
</g>
<defs>
<clipPath id="clip0_22_49">
<rect width="65" height="65" fill="white"/>
</clipPath>
</defs>
</svg>
