<svg width="74" height="74" viewBox="0 0 74 74" fill="none" xmlns="http://www.w3.org/2000/svg">
<path d="M66.8728 36.889C66.7549 36.0149 66.2438 35.2772 65.5038 34.8031C65.0136 34.4886 64.4054 34.4863 63.892 34.706C63.8851 32.819 63.892 30.932 63.8434 29.0473C63.7949 26.9314 63.9105 24.8178 63.9891 22.7064C64.0169 22.0104 63.5706 21.4091 62.9716 21.1131C62.9184 20.3176 62.8629 19.5221 62.7936 18.7289C62.7496 18.2549 62.7103 17.7808 62.6433 17.3114C62.6294 17.2189 62.6178 17.1264 62.6039 17.0339C62.5693 16.7888 62.4583 16.3656 62.3195 16.1783C62.1183 15.9146 61.9472 15.6209 61.635 15.4706C61.4061 15.3619 61.1864 15.2556 60.9366 15.2209C60.6938 15.1839 60.4441 15.1839 60.1989 15.1561C60.1458 14.3768 60.1041 13.5975 60.0694 12.8182C60.1573 12.617 60.2059 12.3996 60.2059 12.173C60.2059 11.2596 59.4451 10.5126 58.5409 10.5034C56.6793 10.4895 54.8178 10.5173 52.9562 10.4386C51.2819 10.3693 49.61 10.2721 47.9288 10.2374C44.3976 10.1727 40.8595 10.1981 37.3237 10.1727C33.8549 10.1496 30.3908 10.0802 26.9151 10.0709C25.2201 10.0686 23.525 10.0363 21.8323 10.0363C20.1996 10.0363 18.5647 10.0663 16.9344 10.1796C15.1353 10.3068 13.313 10.7184 11.6573 11.4399C10.0408 12.1383 8.58857 13.5304 8.08675 15.2463C7.95032 15.7158 7.88094 16.1944 7.8185 16.6824C7.76532 17.0778 7.71907 17.4825 7.76532 17.8803C7.82313 18.3774 7.90407 18.8584 8.03588 19.3348C7.49244 19.61 7.11088 20.165 7.10394 20.8056C7.08082 22.6509 7.09007 24.494 7.05538 26.3348C7.02532 28.009 6.986 29.6809 6.9675 31.3506C6.93744 34.7314 6.91894 38.1077 6.9675 41.4909C7.00219 43.8404 7.05538 46.1899 7.06463 48.5394C7.0785 50.8981 7.10857 53.2592 7.05538 55.6226C7.04844 55.9163 7.1525 56.1799 7.29588 56.4204C7.64507 57.3223 8.01044 58.2288 8.4845 59.0705C8.67875 59.4128 8.92388 59.7296 9.15975 60.0464C9.37944 60.3354 9.60375 60.6222 9.82807 60.9066C10.1703 61.3414 10.6837 61.6836 11.1416 61.9773C12.1637 62.6456 13.3546 63.0711 14.5548 63.2816C15.5954 63.4619 16.6453 63.6377 17.6998 63.7024C19.6146 63.8158 21.5386 63.8296 23.4603 63.8643C25.2871 63.8944 27.114 63.9291 28.9363 63.9268C30.7978 63.9268 32.6548 63.9059 34.514 63.9175C36.3802 63.936 38.2418 63.9915 40.1079 63.9522C42.0319 63.9175 43.9513 63.8389 45.873 63.8111C47.7207 63.7811 49.5799 63.7903 51.4276 63.7903C53.1921 63.7903 54.9588 63.7903 56.7186 63.7672C57.5442 63.7579 58.3698 63.7672 59.1999 63.7764C60.0694 63.7857 60.9389 63.7949 61.8131 63.7811C62.4074 63.7741 62.9254 63.4781 63.2769 63.0434C63.7232 62.7243 64.04 62.2317 64.0284 61.6559C63.9891 59.6671 64.0099 57.6784 63.9891 55.6873C63.9591 53.4026 63.9938 51.1224 64.0331 48.84C64.5811 48.7568 65.0714 48.5972 65.5269 48.2156C66.5421 47.3646 66.7826 45.9054 66.889 44.659C66.9561 43.8866 66.9561 43.1096 66.9861 42.3326C67.0347 41.1463 67.0925 39.9484 67.0509 38.7575C67.0278 38.1331 66.9561 37.5088 66.8728 36.889ZM17.8131 20.4309C17.8201 20.2621 17.8293 20.091 17.7923 19.9176C17.7831 19.8736 17.7761 19.8274 17.7669 19.7834C17.7206 19.0758 17.7438 18.3636 17.7507 17.6513C21.1339 17.7484 24.5194 17.7508 27.9072 17.7669C29.6508 17.7762 31.3944 17.8201 33.1381 17.8641C34.7545 17.908 36.3663 18.0259 37.9828 18.0791C39.6639 18.1369 41.3498 18.1624 43.0379 18.1971C44.7237 18.2318 46.4141 18.2664 48.0999 18.2803C49.8158 18.2942 51.534 18.3104 53.2476 18.315C54.7576 18.3196 56.27 18.3844 57.7801 18.3936C58.3397 18.3959 58.897 18.4168 59.452 18.4584C59.5445 19.2747 59.6046 20.0933 59.6301 20.9166C58.7305 20.9351 57.8286 20.9258 56.9337 20.9166C55.2525 20.8934 53.569 20.8426 51.8878 20.8333C48.5116 20.8148 45.1423 20.7015 41.766 20.6761C38.1747 20.6506 34.5857 20.6807 30.9944 20.5535C28.6842 20.4749 26.3694 20.4795 24.0615 20.4841C22.8266 20.4841 21.5941 20.4888 20.3638 20.4749C19.5128 20.4633 18.6618 20.4518 17.8131 20.4309ZM63.4041 45.2649C63.4064 45.2626 63.411 45.2579 63.4156 45.2533C63.4133 45.2579 63.4087 45.2626 63.4041 45.2649ZM62.9554 37.9828C63.0757 37.9921 63.1936 37.9851 63.3069 37.9666C63.3763 38.9818 63.3648 39.9993 63.3463 41.0191C63.337 41.6643 63.3254 42.3095 63.3116 42.9593C63.3046 43.5906 63.3139 44.2219 63.2561 44.8486C63.2283 44.9943 63.1959 45.1377 63.1566 45.2811C62.5161 45.3134 61.8686 45.2926 61.2303 45.2764C60.4533 45.2579 59.6763 45.251 58.8993 45.251C57.1765 45.251 55.4468 45.2556 53.7378 45.0614C53.2175 44.9689 52.7134 44.8371 52.2185 44.6544C51.7213 44.4185 51.2658 44.1456 50.8241 43.8265C50.6576 43.6808 50.498 43.5305 50.3454 43.3709C50.2529 43.2276 50.1719 43.0819 50.0933 42.9316C50.0124 42.7142 49.9384 42.4945 49.8783 42.2656C49.8413 41.7499 49.8574 41.2458 49.9129 40.7324C50.0054 40.182 50.1188 39.6363 50.3084 39.109C50.3708 38.9864 50.4379 38.8708 50.5096 38.7575C50.5974 38.6696 50.6853 38.5841 50.7778 38.5054C50.9536 38.3968 51.1339 38.2973 51.3213 38.2048C51.7768 38.0406 52.2393 37.9158 52.7203 37.8302C53.4719 37.7539 54.2211 37.7377 54.9773 37.7192C55.7844 37.6961 56.5938 37.666 57.4008 37.666C59.2554 37.6568 61.1124 37.8418 62.9554 37.9828ZM11.3196 16.8813C11.3728 16.5945 11.4376 16.3147 11.5301 16.0395C11.5948 15.91 11.6665 15.7874 11.7428 15.6672C11.944 15.4406 12.1591 15.2278 12.388 15.0289C12.6817 14.8278 12.9869 14.6613 13.3107 14.5063C14.4091 14.0878 15.5631 13.8264 16.7193 13.6507C18.2988 13.4819 19.8713 13.4056 21.4576 13.394C23.1342 13.3848 24.8131 13.3686 26.4896 13.3639C28.0529 13.3639 29.6161 13.3732 31.184 13.3824C33.0594 13.3917 34.9395 13.4033 36.8173 13.3917C40.3392 13.3709 43.8611 13.3616 47.3831 13.431C49.0689 13.4657 50.7501 13.5004 52.4382 13.6114C53.828 13.7085 55.2201 13.7409 56.6123 13.7779C56.6446 14.1872 56.6724 14.5988 56.7186 15.0104C56.5637 15.0104 56.4088 15.0058 56.2538 15.0081C52.9608 15.0289 49.6678 15.0775 46.3725 15.0289C44.6289 15.0081 42.8853 14.9711 41.1463 14.9156C39.4998 14.8671 37.8579 14.8532 36.2137 14.7884C34.5325 14.7214 32.8536 14.652 31.1724 14.6312C29.4913 14.6058 27.8078 14.6081 26.1266 14.5873C22.9908 14.5387 19.8551 14.4254 16.7239 14.2936C16.7031 14.2936 16.6823 14.2913 16.6615 14.2913C15.8521 14.2913 15.2023 14.9758 15.0936 15.7504C14.6057 16.0626 14.2588 16.5806 14.2611 17.1911C14.2658 18.2086 14.2843 19.2331 14.4138 20.2459C14.3444 20.2321 14.2704 20.2344 14.1964 20.2251C13.6599 20.1419 13.128 20.0517 12.6123 19.8806C12.4458 19.795 12.2886 19.7002 12.1313 19.5938C12.0481 19.5198 11.9718 19.4435 11.8978 19.3603C11.7729 19.1591 11.6688 18.9533 11.5717 18.7405C11.4561 18.4353 11.3659 18.13 11.2988 17.8109C11.278 17.4987 11.2896 17.1934 11.3196 16.8813ZM56.5637 60.0556C54.7669 60.0996 52.9678 60.0949 51.1709 60.1343C47.3276 60.2083 43.4865 60.3401 39.6385 60.3678C37.8556 60.3771 36.068 60.4164 34.2851 60.4025C32.3888 60.3933 30.4949 60.3678 28.6033 60.3632C26.8157 60.3586 25.0281 60.3817 23.2406 60.3886C21.3166 60.3933 19.381 60.4025 17.4663 60.2129C17.3136 60.1967 17.161 60.1828 17.0084 60.1666C15.9654 60.0186 14.9156 59.8336 13.9304 59.4683C13.5373 59.274 13.1581 59.0589 12.7973 58.8115C12.5476 58.5918 12.3279 58.3536 12.1174 58.0993C11.9324 57.8541 11.7521 57.6021 11.5833 57.3408C11.4006 57.0494 11.2572 56.7279 11.1184 56.4111C10.9589 56.018 10.8063 55.6203 10.6559 55.2202C10.5658 54.982 10.4548 54.7716 10.3137 54.5843C10.2906 51.6058 10.2906 48.6296 10.2513 45.6557C10.2258 44.0046 10.1934 42.3488 10.1726 40.6977C10.1472 39.0026 10.168 37.3029 10.1634 35.6079C10.1634 33.1821 10.1588 30.7563 10.2212 28.3281C10.2674 26.4411 10.3253 24.5564 10.3761 22.6694C10.4871 22.7388 10.5958 22.8151 10.7068 22.8776C11.6295 23.3863 12.6609 23.5135 13.6876 23.6384C14.5479 23.7448 15.4128 23.791 16.2823 23.8234C18.0074 23.8858 19.7394 23.8627 21.4692 23.8627C23.2914 23.8627 25.1091 23.8419 26.9313 23.8326C28.7235 23.8188 30.5064 23.902 32.2963 23.9598C34.0214 24.013 35.7489 24.013 37.4786 24.013C39.2708 24.0084 41.0653 23.9945 42.8575 23.9991C44.615 24.0038 46.3702 24.1078 48.1231 24.2142C51.4161 24.4084 54.7229 24.42 58.0206 24.4593C58.7999 24.4686 59.5908 24.4593 60.3793 24.4269C60.3308 27.7269 60.3747 31.0291 60.3886 34.3291C59.3086 34.2782 58.2287 34.2019 57.1464 34.1903C56.3163 34.1811 55.4861 34.1556 54.6605 34.1418C54.5773 34.1394 54.4963 34.1394 54.4131 34.1394C53.4927 34.1394 52.5839 34.2273 51.6704 34.3476C50.6784 34.484 49.6678 34.8887 48.8168 35.4113C48.1809 35.8021 47.7323 36.3248 47.2836 36.9098C47.0015 37.2775 46.835 37.7978 46.6778 38.2187C46.5066 38.6719 46.4141 39.1576 46.3216 39.6339C46.0834 40.8549 45.9701 42.0921 46.2245 43.3224C46.2869 43.6299 46.4095 43.9283 46.5228 44.2219C46.8049 44.955 47.1865 45.5609 47.7138 46.1459C48.13 46.6108 48.6896 46.9715 49.1984 47.3276C49.5268 47.5566 49.8875 47.7439 50.2529 47.9127C50.7709 48.1463 51.3074 48.3914 51.8647 48.5278C52.8521 48.7729 53.8835 48.8539 54.8987 48.9094C56.0364 48.9718 57.1811 48.9626 58.3281 48.9533C58.8114 48.9487 59.2994 48.9441 59.785 48.9441C59.9885 48.9441 60.1897 48.9464 60.3932 48.9487C60.3678 52.6302 60.4857 56.3094 60.5158 59.9886C59.1999 60.0024 57.8818 60.0256 56.5637 60.0556ZM55.8052 41.3128C55.8052 42.3095 54.975 43.142 53.976 43.142C52.9793 43.142 52.1468 42.3118 52.1468 41.3128C52.1468 40.3161 52.977 39.4836 53.976 39.4836C54.9727 39.4836 55.8052 40.3161 55.8052 41.3128Z" fill="#253769"/>
</svg>
