<svg width="73" height="73" viewBox="0 0 73 73" fill="none" xmlns="http://www.w3.org/2000/svg">
<path d="M37.1297 29.4028C37.1144 29.4028 37.099 29.4028 37.099 29.4028H32.091C31.4612 29.4028 30.9389 29.9251 30.9389 30.555V43.3361H29.3412C28.7114 43.3361 28.1891 43.8584 28.1891 44.4883C28.1891 45.1181 28.7114 45.6404 29.3412 45.6404H30.9389V47.6221H29.3412C28.7114 47.6221 28.1891 48.1444 28.1891 48.7743C28.1891 49.4041 28.7114 49.9264 29.3412 49.9264H30.9389V55.9176C30.9389 56.5474 31.4612 57.0697 32.091 57.0697C32.7209 57.0697 33.2432 56.5474 33.2432 55.9176V49.9264H40.5555C41.1853 49.9264 41.7076 49.4041 41.7076 48.7743C41.7076 48.1444 41.1853 47.6221 40.5555 47.6221H33.2432V45.6404H37.099C41.3543 45.6404 44.8107 42.0304 44.8107 37.5754C44.8107 33.1358 41.4465 29.5411 37.1297 29.4028ZM37.099 43.3361H33.2432V31.7071H37.0837C40.1253 31.8147 42.5064 34.3955 42.5064 37.5754C42.5064 40.7553 40.0792 43.3361 37.099 43.3361Z" fill="#253769"/>
<path d="M68.038 40.4941L45.6403 18.1271C47.2687 15.9611 48.0675 13.3188 47.8832 10.5997C47.6835 7.7117 46.4238 5.02336 44.3038 3.05703C42.1839 1.07534 39.388 0 36.4385 0C33.5351 0 30.7699 1.0907 28.6654 3.08776C26.5608 5.08481 25.3011 7.78851 25.1014 10.738C25.0553 11.3678 25.5469 11.9209 26.1767 11.967C26.8066 12.0131 27.3596 11.5215 27.4057 10.8916C27.7283 6.00653 31.6149 2.31966 36.4385 2.31966C41.339 2.31966 45.2716 5.96044 45.5942 10.7841C45.7325 12.904 45.1334 14.9011 44.0119 16.5141L37.3756 9.8931C36.9301 9.44761 36.1927 9.44761 35.7472 9.8931L4.96186 40.5248C4.7468 40.7399 4.6239 41.0318 4.6239 41.339C4.6239 41.6463 4.7468 41.9381 4.96186 42.1532L35.7472 72.662C35.9776 72.8771 36.2695 73 36.5614 73C36.8533 73 37.1452 72.8925 37.3756 72.662L68.038 42.1532C68.2531 41.9381 68.376 41.6463 68.376 41.339C68.376 41.0011 68.2531 40.7092 68.038 40.4941ZM36.5614 70.1888L7.41978 41.3083L36.5614 12.3049L42.445 18.1886C41.9842 18.588 41.4619 18.9413 40.9242 19.2332C40.1407 17.5741 38.4816 16.4373 36.5614 16.4373C33.7655 16.4373 31.5841 18.6187 31.5841 21.4146C31.5841 24.0875 33.8116 26.2689 36.5614 26.2689C39.1883 26.2689 41.3236 24.1797 41.4158 21.5682C42.3836 21.1227 43.2746 20.5389 44.0734 19.8169L65.5955 41.3083L36.5614 70.1888ZM36.6075 21.5375C36.6689 22.1212 37.1759 22.5667 37.7443 22.5667C37.7904 22.5667 37.8364 22.5667 37.8672 22.5667C38.2051 22.536 38.5585 22.4745 38.8964 22.3977C38.497 23.3041 37.5906 23.9646 36.546 23.9646C35.0406 23.9646 33.8731 22.8432 33.8731 21.4146C33.8731 19.8937 35.0252 18.7416 36.546 18.7416C37.4985 18.7416 38.328 19.2639 38.7582 20.0627C38.3895 20.1549 38.0054 20.2163 37.6214 20.2624C36.9915 20.3392 36.546 20.9076 36.6075 21.5375Z" fill="#253769"/>
</svg>
