<svg width="66" height="66" viewBox="0 0 66 66" fill="none" xmlns="http://www.w3.org/2000/svg">
<path d="M33.1249 42.7406C36.0019 42.7406 38.3426 40.4024 38.3426 37.5284C38.3426 35.085 36.6502 33.0301 34.3752 32.4691V24.2228C34.3752 23.4634 33.7596 22.8478 33.0002 22.8478C32.2407 22.8478 31.6252 23.4634 31.6252 24.2228V32.5378C29.481 33.1837 27.9143 35.176 27.9143 37.5284C27.9143 40.4024 30.2518 42.7406 33.1249 42.7406ZM33.1249 35.0667C34.4856 35.0667 35.5926 36.171 35.5926 37.5284C35.5926 38.8861 34.4856 39.9906 33.1249 39.9906C31.768 39.9906 30.6643 38.8861 30.6643 37.5284C30.6643 36.171 31.7682 35.0667 33.1249 35.0667Z" fill="#253769"/>
<path d="M64.047 16.6607L53.2377 5.85406C52.7008 5.31726 51.8302 5.31726 51.2932 5.8542C50.7563 6.39127 50.7564 7.26179 51.2934 7.79873L55.3733 11.8777L51.2467 16.0035C46.5155 11.8944 40.6388 9.49355 34.3751 9.11212V8.98123H41C43.2698 8.98123 45.7989 7.19826 45.7989 4.63966V4.09255C45.7989 1.53079 43.3589 0 41 0H25.0012C22.6459 0 21.2398 1.52996 21.2398 4.09255V4.63966C21.2398 7.27705 22.7163 8.98123 25.0012 8.98123H31.6251V9.075C25.0889 9.29734 19.1049 11.7325 14.4005 15.6545L10.6255 11.8789L14.7067 7.79873C15.2437 7.26179 15.2437 6.39127 14.7069 5.8542C14.1701 5.31713 13.2995 5.31699 12.7624 5.85406L7.71218 10.9029C7.71108 10.904 7.70971 10.905 7.70861 10.9062C7.70751 10.9075 7.70641 10.9087 7.70531 10.9098L1.95313 16.6607C1.41606 17.1977 1.41606 18.0682 1.95286 18.6053C2.2214 18.8738 2.57326 19.0081 2.92526 19.0081C3.27712 19.0081 3.62898 18.8739 3.89738 18.6055L8.68073 13.8233L12.3733 17.5165C7.28222 22.663 4.13333 29.7346 4.13333 37.5286C4.13347 53.2276 16.906 66 32.6056 66C48.3063 66 61.0798 53.2276 61.0798 37.5284C61.0798 30.1591 58.3001 23.2181 53.2366 17.9029L57.3182 13.8221L62.1028 18.6055C62.3713 18.8739 62.723 19.0081 63.0749 19.0081C63.4268 19.0081 63.7788 18.8738 64.0473 18.6053C64.5842 18.0682 64.5841 17.1975 64.047 16.6607ZM38.5292 2.75H41C41.9691 2.75 43.0489 3.30138 43.0489 4.09255V4.63966C43.0489 5.4428 42.034 6.23123 41 6.23123H38.5292V2.75ZM27.4709 6.23123H25.0012C24.6729 6.23123 23.9898 6.23123 23.9898 4.63966V4.09255C23.9898 2.75 24.4811 2.75 25.0012 2.75H27.4709V6.23123ZM30.2209 6.23123V2.75H35.7792V6.23123H30.2209ZM32.6056 17.9492C43.4032 17.9492 52.1878 26.7325 52.1878 37.5284C52.1878 48.3242 43.4032 57.1072 32.6056 57.1072C21.8102 57.1072 13.0274 48.3242 13.0274 37.5284C13.0274 26.7323 21.8102 17.9492 32.6056 17.9492ZM58.3298 37.5283C58.3298 51.7113 46.79 63.25 32.6056 63.25C18.4223 63.25 6.88347 51.7113 6.88347 37.5284C6.88347 23.6736 17.8947 12.3442 31.6251 11.8269V15.2221C19.7665 15.7372 10.2774 25.5448 10.2774 37.5284C10.2774 49.8406 20.2937 59.8572 32.6056 59.8572C44.9197 59.8572 54.9378 49.8406 54.9378 37.5284C54.9378 25.8115 45.8651 16.1741 34.3751 15.2692V11.8682C47.7371 12.7805 58.3298 23.9399 58.3298 37.5283Z" fill="#253769"/>
</svg>
